PathFileType	4	(X/Y/Z)	C:\Users\dbl\Desktop\20210112\20210112\bx_n_0_1801.trc
DataRate	CameraRate	NumFrames	NumMarkers	Units	OrigDataRate	OrigDataStartFrame	OrigNumFrames
50.00	50.00	       5	43	mm	50.00	50	       397
Frame#	Time	Top.Head			R.Acromium			L.Acromium			Sternum			R.ASIS			L.ASIS			V.Sacral			R.Thigh.Upper			R.Thigh.Front			R.Thigh.Rear			R.Knee.Lat			R.Knee.Med			R.Shank.Upper			R.Shank.Front			R.Shank.Rear			R.Ankle.Lat			R.Midfoot.Lat			R.Toe.Lat			R.Toe.Tip			R.Toe.Med			R.Ankle.Med			R.Midfoot.Sup			R.Heel			L.Thigh.Upper			L.Thigh.Front			L.Thigh.Rear			L.Knee.Lat			L.Knee.Med			L.Shank.Upper			L.Shank.Front			L.Shank.Rear			L.Ankle.Lat			L.Midfoot.Lat			L.Toe.Lat			L.Toe.Tip			L.Toe.Med			L.Ankle.Med			L.Midfoot.Sup			L.Heel			origin1 front left			origin2 front right			origin 3 back right			origin 4 back leftt			
		X1	Y1	Z1	X2	Y2	Z2	X3	Y3	Z3	X4	Y4	Z4	X5	Y5	Z5	X6	Y6	Z6	X7	Y7	Z7	X8	Y8	Z8	X9	Y9	Z9	X10	Y10	Z10	X11	Y11	Z11	X12	Y12	Z12	X13	Y13	Z13	X14	Y14	Z14	X15	Y15	Z15	X16	Y16	Z16	X17	Y17	Z17	X18	Y18	Z18	X19	Y19	Z19	X20	Y20	Z20	X21	Y21	Z21	X22	Y22	Z22	X23	Y23	Z23	X24	Y24	Z24	X25	Y25	Z25	X26	Y26	Z26	X27	Y27	Z27	X28	Y28	Z28	X29	Y29	Z29	X30	Y30	Z30	X31	Y31	Z31	X32	Y32	Z32	X33	Y33	Z33	X34	Y34	Z34	X35	Y35	Z35	X36	Y36	Z36	X37	Y37	Z37	X38	Y38	Z38	X39	Y39	Z39	X40	Y40	Z40	X41	Y41	Z41	X42	Y42	Z42	X43	Y43	Z43	

50	0.980	-669.15643	122.60914	1850.87720	-708.44049	-67.06960	1543.96582	-725.35291	292.75797	1535.92004	-615.38953	105.63601	1356.13525	-627.97424	-5.40773	1059.41382	-623.59857	241.24922	1069.88733	-821.68109	104.63580	1062.49280	-690.21936	-70.98332	875.04724	-610.01416	-4.47472	810.66962	-704.39520	-56.70661	759.34937	-717.50623	-31.02494	617.00024	-697.45294	77.85158	574.39746	-720.55408	-28.95318	569.76270	-669.34082	18.76526	521.51074	-761.56934	-40.44103	488.26294	-757.52625	-18.43106	207.72821	-649.20074	-68.18458	161.17960	-609.66608	-76.53902	156.45076	-553.47491	-35.12289	164.86577	-599.43286	24.69671	167.95221	-717.64899	72.34018	215.91747	-673.57477	54.25040	158.13217	-792.10669	39.78671	174.31114	-700.34583	290.23300	875.58643	-604.97595	222.24100	800.52325	-704.90997	270.41675	746.25616	-738.03491	252.32179	641.35968	-691.32123	143.86705	581.14960	-729.21155	246.00246	577.18146	-674.48029	204.30664	537.82123	-766.20844	255.98328	501.68546	-764.13611	227.65770	206.48228	-655.04272	293.46289	155.21637	-620.74780	304.49857	157.70517	-555.14001	250.12627	167.60461	-589.74609	212.88884	175.58752	-711.66492	150.87950	216.86584	-674.66125	167.00369	158.92059	-794.41327	178.80466	184.65353	-528.22980	304.15683	146.49857	-517.79205	-72.80235	143.18179	-875.91095	-78.80805	141.38765	-882.50763	296.25589	144.79674	
51	1.000	-669.08124	122.71365	1850.87598	-708.25079	-66.92597	1543.93396	-725.31274	292.89056	1535.99146	-615.22650	105.86386	1356.18823	-627.90765	-5.39177	1059.47058	-623.35486	241.20486	1069.83411	-821.52991	104.93638	1062.45349	-690.22644	-70.91947	875.15680	-609.97681	-4.45249	810.68213	-704.31830	-56.68825	759.36975	-717.25781	-30.99355	617.01978	-697.19543	78.02676	574.42230	-720.47552	-28.83767	569.78027	-669.17310	18.83707	521.45264	-761.55823	-40.39901	488.35977	-757.52136	-18.37269	207.74617	-649.19318	-68.18505	161.18694	-609.71088	-76.60485	156.33356	-553.44794	-35.12508	164.86249	-599.39240	24.73115	167.90271	-717.66589	72.34684	215.89774	-673.57440	54.25443	158.12909	-792.05121	39.82671	174.31502	-699.87976	290.31439	875.56494	-604.72821	222.07983	800.41779	-704.40070	270.45123	746.27612	-737.61121	252.41049	641.52301	-691.18353	143.98111	581.04736	-728.92535	245.80325	576.99939	-674.27612	204.34268	537.80432	-765.96838	256.01776	501.75720	-764.10205	227.59331	206.42972	-655.01178	293.55231	155.13132	-620.70874	304.71094	157.39369	-555.00409	250.01781	167.36153	-589.53772	212.81747	175.52216	-711.66681	150.85315	216.81020	-674.47766	167.06024	158.81790	-794.35748	178.79659	184.69675	-528.21643	304.07782	146.50006	-517.78888	-72.80477	143.18372	-875.95868	-78.77545	141.45680	-882.50519	296.26102	144.79385	
52	1.020	-669.00714	122.80520	1850.89233	-708.12231	-66.82337	1543.91125	-725.27826	293.00183	1536.01514	-615.06891	106.07468	1356.24780	-627.78687	-5.40831	1059.55359	-623.03558	241.23285	1069.79309	-821.32172	105.19370	1062.40674	-690.15442	-70.87356	875.25970	-609.90265	-4.47118	810.64575	-704.23724	-56.64958	759.38580	-716.91864	-31.03135	617.04492	-696.94550	78.16087	574.40778	-720.37085	-28.73915	569.78845	-669.00885	18.87891	521.38660	-761.57159	-40.36470	488.43549	-757.53699	-18.35794	207.77530	-649.18091	-68.19155	161.19073	-609.76031	-76.68782	156.21400	-553.42743	-35.09990	164.85223	-599.34961	24.76484	167.86276	-717.66626	72.34254	215.89133	-673.55426	54.25314	158.13057	-792.02490	39.89130	174.30916	-699.40118	290.46985	875.55646	-604.44049	221.91348	800.33081	-703.91827	270.47400	746.28973	-737.14209	252.48460	641.67932	-691.07825	144.08954	580.98816	-728.64618	245.73283	576.94818	-674.06952	204.39322	537.73358	-765.77679	256.09448	501.84482	-764.06128	227.56291	206.36809	-655.01031	293.61456	155.06230	-620.70831	304.94077	157.14099	-554.91254	249.89705	167.17804	-589.37988	212.76286	175.48454	-711.65363	150.79443	216.76462	-674.28888	167.09793	158.74907	-794.31635	178.81354	184.72910	-528.20642	304.03375	146.50957	-517.78363	-72.81482	143.18312	-875.99255	-78.73855	141.51308	-882.50061	296.26227	144.79135	
53	1.040	-668.97516	122.88220	1850.91284	-708.00366	-66.72386	1543.90234	-725.22827	293.10123	1535.98743	-614.95166	106.22953	1356.28564	-627.59686	-5.44091	1059.62842	-622.64771	241.31949	1069.78577	-821.09338	105.35661	1062.36914	-690.01556	-70.85394	875.34094	-609.76447	-4.53096	810.55133	-704.14734	-56.58002	759.38910	-716.55548	-31.06870	617.07520	-696.68286	78.21703	574.35944	-720.22131	-28.66310	569.79181	-668.86737	18.90250	521.32941	-761.56207	-40.34477	488.47238	-757.58527	-18.37673	207.80374	-649.17194	-68.18980	161.19708	-609.78998	-76.78713	156.09708	-553.41913	-35.05218	164.84061	-599.32294	24.78866	167.83157	-717.67401	72.37230	215.87224	-673.52185	54.24838	158.13510	-792.01007	39.94547	174.29161	-698.97455	290.63504	875.55341	-604.12500	221.79181	800.28088	-703.56592	270.48254	746.27563	-736.70178	252.52917	641.75549	-690.96686	144.17522	580.93896	-728.39594	245.81363	577.04071	-673.87256	204.43861	537.62213	-765.64380	256.17532	501.91766	-764.01447	227.56334	206.32458	-655.03290	293.66025	154.98958	-620.72168	305.13773	156.95050	-554.86847	249.82297	167.04791	-589.29626	212.73291	175.47610	-711.61273	150.72571	216.75966	-674.17450	167.14749	158.71323	-794.29138	178.84612	184.74635	-528.21625	304.05542	146.53070	-517.75293	-72.81758	143.19955	-875.99921	-78.71128	141.53362	-882.49023	296.25729	144.79269	
54	1.060	-669.00519	122.93570	1850.93909	-707.85223	-66.60023	1543.91870	-725.15833	293.19263	1535.93042	-614.86084	106.34016	1356.29395	-627.34570	-5.45489	1059.65808	-622.23914	241.43073	1069.80896	-820.86719	105.42886	1062.34924	-689.83527	-70.86385	875.39874	-609.55798	-4.60198	810.42267	-704.04132	-56.50145	759.37994	-716.26355	-31.01145	617.08423	-696.43280	78.19834	574.30365	-720.03473	-28.61322	569.80414	-668.75275	18.94105	521.28949	-761.49548	-40.34685	488.47638	-757.65399	-18.39996	207.83195	-649.16925	-68.17650	161.20709	-609.78815	-76.87822	155.99992	-553.42267	-35.01099	164.83260	-599.31793	24.80306	167.80121	-717.70038	72.43819	215.84828	-673.50128	54.24348	158.13969	-791.98560	39.96280	174.25890	-698.61829	290.72516	875.51471	-603.78125	221.75130	800.26263	-703.33984	270.46814	746.23035	-736.34369	252.55379	641.72577	-690.82178	144.23267	580.87885	-728.17206	245.98656	577.18555	-673.68481	204.46996	537.50391	-765.55652	256.24503	501.95724	-763.98462	227.57101	206.30611	-655.06342	293.69528	154.92621	-620.72571	305.26224	156.82480	-554.85309	249.81105	166.96219	-589.26935	212.72275	175.49438	-711.55621	150.68118	216.81346	-674.15619	167.22023	158.69231	-794.27557	178.87738	184.75208	-528.24048	304.12567	146.57190	-517.68799	-72.81062	143.25365	-875.97223	-78.70142	141.50522	-882.48767	296.24780	144.79228	
